G04 Layer: DrillDrawingLayer*
G04 EasyEDA Pro v3.2.148, 2026-08-12 10:44:37*
G04 Gerber Generator version 0.3*
G04 Scale: 100 percent, Rotated: No, Reflected: No*
G04 Dimensions in millimeters*
G04 Leading zeros omitted, absolute positions, 4 integers and 5 decimals*
G04 Generated by one-click*
G04 Object Configs: Pad,Via,Track,Text,Image,Dimension,BoardOutline,BoardCutout,CopperFilled,SolidRegion,FPCStiffener,Line,PlaneZone,ComponentProperty,ComponentSilkscreen,TearDrop*
G04 Layer Configs: 1,2,3,4,5,6,7,8,9,10,11,13,14,56*
G04 Copper Areas: 0*
%FSLAX45Y45*%
%MOMM*%
%AMIconRect*4,1,4,0.28,-0.28,-0.28,-0.28,-0.28,0.28,0.28,0.28,0.28,-0.28,0*4,0,4,0.233333,-0.233333,0.233333,0.233333,-0.233333,0.233333,-0.233333,-0.233333,0.233333,-0.233333,0*%
%ADD10IconRect*%
%ADD11C,0.616X0.522667*%
%ADD12C,0.2032*%
%ADD13C,0.254*%
G75*


G04 Drill Drawing Start*
G54D10*
G01X-3516043Y-1738043D03*
G01X-2500043Y-1738043D03*
G54D11*
G01X-5092700Y-1739900D03*
G01X-4838700Y-1739900D03*
G01X-843200Y-1727200D03*
G01X-589200Y-1727200D03*
G04 Drill Drawing End*

G04 Text Start*
G54D12*
G01X2084546Y-1288506D02*
G01X2084546Y-1408648D01*
G01X2084546Y-1288506D02*
G01X2130266Y-1408648D01*
G01X2175986Y-1288506D02*
G01X2130266Y-1408648D01*
G01X2175986Y-1288506D02*
G01X2175986Y-1408648D01*
G01X2292318Y-1328638D02*
G01X2292318Y-1408648D01*
G01X2292318Y-1345656D02*
G01X2280888Y-1334226D01*
G01X2269458Y-1328638D01*
G01X2252440Y-1328638D01*
G01X2241010Y-1334226D01*
G01X2229580Y-1345656D01*
G01X2223738Y-1362928D01*
G01X2223738Y-1374358D01*
G01X2229580Y-1391376D01*
G01X2241010Y-1402806D01*
G01X2252440Y-1408648D01*
G01X2269458Y-1408648D01*
G01X2280888Y-1402806D01*
G01X2292318Y-1391376D01*
G01X2340070Y-1328638D02*
G01X2340070Y-1408648D01*
G01X2340070Y-1362928D02*
G01X2345912Y-1345656D01*
G01X2357342Y-1334226D01*
G01X2368772Y-1328638D01*
G01X2385790Y-1328638D01*
G01X2433542Y-1288506D02*
G01X2433542Y-1408648D01*
G01X2490692Y-1328638D02*
G01X2433542Y-1385788D01*
G01X2456402Y-1362928D02*
G01X2496534Y-1408648D01*
G01X3621826Y-1317208D02*
G01X3615984Y-1305778D01*
G01X3604554Y-1294348D01*
G01X3593124Y-1288506D01*
G01X3570264Y-1288506D01*
G01X3558834Y-1294348D01*
G01X3547404Y-1305778D01*
G01X3541816Y-1317208D01*
G01X3535974Y-1334226D01*
G01X3535974Y-1362928D01*
G01X3541816Y-1379946D01*
G01X3547404Y-1391376D01*
G01X3558834Y-1402806D01*
G01X3570264Y-1408648D01*
G01X3593124Y-1408648D01*
G01X3604554Y-1402806D01*
G01X3615984Y-1391376D01*
G01X3621826Y-1379946D01*
G01X3698280Y-1328638D02*
G01X3686850Y-1334226D01*
G01X3675420Y-1345656D01*
G01X3669578Y-1362928D01*
G01X3669578Y-1374358D01*
G01X3675420Y-1391376D01*
G01X3686850Y-1402806D01*
G01X3698280Y-1408648D01*
G01X3715298Y-1408648D01*
G01X3726728Y-1402806D01*
G01X3738158Y-1391376D01*
G01X3744000Y-1374358D01*
G01X3744000Y-1362928D01*
G01X3738158Y-1345656D01*
G01X3726728Y-1334226D01*
G01X3715298Y-1328638D01*
G01X3698280Y-1328638D01*
G01X3791752Y-1328638D02*
G01X3791752Y-1385788D01*
G01X3797594Y-1402806D01*
G01X3809024Y-1408648D01*
G01X3826042Y-1408648D01*
G01X3837472Y-1402806D01*
G01X3854744Y-1385788D01*
G01X3854744Y-1328638D02*
G01X3854744Y-1408648D01*
G01X3902496Y-1328638D02*
G01X3902496Y-1408648D01*
G01X3902496Y-1351498D02*
G01X3919768Y-1334226D01*
G01X3931198Y-1328638D01*
G01X3948216Y-1328638D01*
G01X3959646Y-1334226D01*
G01X3965488Y-1351498D01*
G01X3965488Y-1408648D01*
G01X4030512Y-1288506D02*
G01X4030512Y-1385788D01*
G01X4036100Y-1402806D01*
G01X4047530Y-1408648D01*
G01X4058960Y-1408648D01*
G01X4013240Y-1328638D02*
G01X4053372Y-1328638D01*
G01X5030147Y-1305778D02*
G01X5018717Y-1294348D01*
G01X5001699Y-1288506D01*
G01X4978839Y-1288506D01*
G01X4961567Y-1294348D01*
G01X4950137Y-1305778D01*
G01X4950137Y-1317208D01*
G01X4955979Y-1328638D01*
G01X4961567Y-1334226D01*
G01X4972997Y-1340068D01*
G01X5007287Y-1351498D01*
G01X5018717Y-1357086D01*
G01X5024559Y-1362928D01*
G01X5030147Y-1374358D01*
G01X5030147Y-1391376D01*
G01X5018717Y-1402806D01*
G01X5001699Y-1408648D01*
G01X4978839Y-1408648D01*
G01X4961567Y-1402806D01*
G01X4950137Y-1391376D01*
G01X5077899Y-1288506D02*
G01X5083741Y-1294348D01*
G01X5089329Y-1288506D01*
G01X5083741Y-1282918D01*
G01X5077899Y-1288506D01*
G01X5083741Y-1328638D02*
G01X5083741Y-1408648D01*
G01X5200073Y-1328638D02*
G01X5137081Y-1408648D01*
G01X5137081Y-1328638D02*
G01X5200073Y-1328638D01*
G01X5137081Y-1408648D02*
G01X5200073Y-1408648D01*
G01X5247825Y-1362928D02*
G01X5316405Y-1362928D01*
G01X5316405Y-1351498D01*
G01X5310817Y-1340068D01*
G01X5304975Y-1334226D01*
G01X5293545Y-1328638D01*
G01X5276527Y-1328638D01*
G01X5265097Y-1334226D01*
G01X5253667Y-1345656D01*
G01X5247825Y-1362928D01*
G01X5247825Y-1374358D01*
G01X5253667Y-1391376D01*
G01X5265097Y-1402806D01*
G01X5276527Y-1408648D01*
G01X5293545Y-1408648D01*
G01X5304975Y-1402806D01*
G01X5316405Y-1391376D01*
G01X8832927Y-1288506D02*
G01X8832927Y-1408648D01*
G01X8832927Y-1288506D02*
G01X8884489Y-1288506D01*
G01X8901507Y-1294348D01*
G01X8907349Y-1299936D01*
G01X8912937Y-1311366D01*
G01X8912937Y-1328638D01*
G01X8907349Y-1340068D01*
G01X8901507Y-1345656D01*
G01X8884489Y-1351498D01*
G01X8832927Y-1351498D01*
G01X8960689Y-1288506D02*
G01X8960689Y-1408648D01*
G01X9077021Y-1328638D02*
G01X9077021Y-1408648D01*
G01X9077021Y-1345656D02*
G01X9065591Y-1334226D01*
G01X9054161Y-1328638D01*
G01X9037143Y-1328638D01*
G01X9025713Y-1334226D01*
G01X9014283Y-1345656D01*
G01X9008441Y-1362928D01*
G01X9008441Y-1374358D01*
G01X9014283Y-1391376D01*
G01X9025713Y-1402806D01*
G01X9037143Y-1408648D01*
G01X9054161Y-1408648D01*
G01X9065591Y-1402806D01*
G01X9077021Y-1391376D01*
G01X9142045Y-1288506D02*
G01X9142045Y-1385788D01*
G01X9147633Y-1402806D01*
G01X9159063Y-1408648D01*
G01X9170493Y-1408648D01*
G01X9124773Y-1328638D02*
G01X9164905Y-1328638D01*
G01X9218245Y-1362928D02*
G01X9286825Y-1362928D01*
G01X9286825Y-1351498D01*
G01X9281237Y-1340068D01*
G01X9275395Y-1334226D01*
G01X9263965Y-1328638D01*
G01X9246947Y-1328638D01*
G01X9235517Y-1334226D01*
G01X9224087Y-1345656D01*
G01X9218245Y-1362928D01*
G01X9218245Y-1374358D01*
G01X9224087Y-1391376D01*
G01X9235517Y-1402806D01*
G01X9246947Y-1408648D01*
G01X9263965Y-1408648D01*
G01X9275395Y-1402806D01*
G01X9286825Y-1391376D01*
G01X9403157Y-1288506D02*
G01X9403157Y-1408648D01*
G01X9403157Y-1345656D02*
G01X9391727Y-1334226D01*
G01X9380297Y-1328638D01*
G01X9363279Y-1328638D01*
G01X9351849Y-1334226D01*
G01X9340419Y-1345656D01*
G01X9334577Y-1362928D01*
G01X9334577Y-1374358D01*
G01X9340419Y-1391376D01*
G01X9351849Y-1402806D01*
G01X9363279Y-1408648D01*
G01X9380297Y-1408648D01*
G01X9391727Y-1402806D01*
G01X9403157Y-1391376D01*
G01X10374344Y-1305778D02*
G01X10362914Y-1294348D01*
G01X10345896Y-1288506D01*
G01X10323036Y-1288506D01*
G01X10305764Y-1294348D01*
G01X10294334Y-1305778D01*
G01X10294334Y-1317208D01*
G01X10300176Y-1328638D01*
G01X10305764Y-1334226D01*
G01X10317194Y-1340068D01*
G01X10351484Y-1351498D01*
G01X10362914Y-1357086D01*
G01X10368756Y-1362928D01*
G01X10374344Y-1374358D01*
G01X10374344Y-1391376D01*
G01X10362914Y-1402806D01*
G01X10345896Y-1408648D01*
G01X10323036Y-1408648D01*
G01X10305764Y-1402806D01*
G01X10294334Y-1391376D01*
G01X10422096Y-1288506D02*
G01X10422096Y-1408648D01*
G01X10422096Y-1351498D02*
G01X10439368Y-1334226D01*
G01X10450798Y-1328638D01*
G01X10467816Y-1328638D01*
G01X10479246Y-1334226D01*
G01X10485088Y-1351498D01*
G01X10485088Y-1408648D01*
G01X10601420Y-1328638D02*
G01X10601420Y-1408648D01*
G01X10601420Y-1345656D02*
G01X10589990Y-1334226D01*
G01X10578560Y-1328638D01*
G01X10561542Y-1328638D01*
G01X10550112Y-1334226D01*
G01X10538682Y-1345656D01*
G01X10532840Y-1362928D01*
G01X10532840Y-1374358D01*
G01X10538682Y-1391376D01*
G01X10550112Y-1402806D01*
G01X10561542Y-1408648D01*
G01X10578560Y-1408648D01*
G01X10589990Y-1402806D01*
G01X10601420Y-1391376D01*
G01X10649172Y-1328638D02*
G01X10649172Y-1448526D01*
G01X10649172Y-1345656D02*
G01X10660602Y-1334226D01*
G01X10672032Y-1328638D01*
G01X10689304Y-1328638D01*
G01X10700734Y-1334226D01*
G01X10712164Y-1345656D01*
G01X10717752Y-1362928D01*
G01X10717752Y-1374358D01*
G01X10712164Y-1391376D01*
G01X10700734Y-1402806D01*
G01X10689304Y-1408648D01*
G01X10672032Y-1408648D01*
G01X10660602Y-1402806D01*
G01X10649172Y-1391376D01*
G01X10765504Y-1362928D02*
G01X10834084Y-1362928D01*
G01X10834084Y-1351498D01*
G01X10828496Y-1340068D01*
G01X10822654Y-1334226D01*
G01X10811224Y-1328638D01*
G01X10794206Y-1328638D01*
G01X10782776Y-1334226D01*
G01X10771346Y-1345656D01*
G01X10765504Y-1362928D01*
G01X10765504Y-1374358D01*
G01X10771346Y-1391376D01*
G01X10782776Y-1402806D01*
G01X10794206Y-1408648D01*
G01X10811224Y-1408648D01*
G01X10822654Y-1402806D01*
G01X10834084Y-1391376D01*
G01X11725515Y-1288506D02*
G01X11771235Y-1408648D01*
G01X11816955Y-1288506D02*
G01X11771235Y-1408648D01*
G01X11864707Y-1288506D02*
G01X11870549Y-1294348D01*
G01X11876137Y-1288506D01*
G01X11870549Y-1282918D01*
G01X11864707Y-1288506D01*
G01X11870549Y-1328638D02*
G01X11870549Y-1408648D01*
G01X11992469Y-1328638D02*
G01X11992469Y-1408648D01*
G01X11992469Y-1345656D02*
G01X11981039Y-1334226D01*
G01X11969609Y-1328638D01*
G01X11952591Y-1328638D01*
G01X11941161Y-1334226D01*
G01X11929731Y-1345656D01*
G01X11923889Y-1362928D01*
G01X11923889Y-1374358D01*
G01X11929731Y-1391376D01*
G01X11941161Y-1402806D01*
G01X11952591Y-1408648D01*
G01X11969609Y-1408648D01*
G01X11981039Y-1402806D01*
G01X11992469Y-1391376D01*
G01X12143091Y-1265646D02*
G01X12040221Y-1448526D01*
G01X12190843Y-1288506D02*
G01X12190843Y-1408648D01*
G01X12190843Y-1288506D02*
G01X12242405Y-1288506D01*
G01X12259423Y-1294348D01*
G01X12265265Y-1299936D01*
G01X12270853Y-1311366D01*
G01X12270853Y-1328638D01*
G01X12265265Y-1340068D01*
G01X12259423Y-1345656D01*
G01X12242405Y-1351498D01*
G01X12190843Y-1351498D01*
G01X12387185Y-1328638D02*
G01X12387185Y-1408648D01*
G01X12387185Y-1345656D02*
G01X12375755Y-1334226D01*
G01X12364325Y-1328638D01*
G01X12347307Y-1328638D01*
G01X12335877Y-1334226D01*
G01X12324447Y-1345656D01*
G01X12318605Y-1362928D01*
G01X12318605Y-1374358D01*
G01X12324447Y-1391376D01*
G01X12335877Y-1402806D01*
G01X12347307Y-1408648D01*
G01X12364325Y-1408648D01*
G01X12375755Y-1402806D01*
G01X12387185Y-1391376D01*
G01X12503517Y-1288506D02*
G01X12503517Y-1408648D01*
G01X12503517Y-1345656D02*
G01X12492087Y-1334226D01*
G01X12480657Y-1328638D01*
G01X12463639Y-1328638D01*
G01X12452209Y-1334226D01*
G01X12440779Y-1345656D01*
G01X12434937Y-1362928D01*
G01X12434937Y-1374358D01*
G01X12440779Y-1391376D01*
G01X12452209Y-1402806D01*
G01X12463639Y-1408648D01*
G01X12480657Y-1408648D01*
G01X12492087Y-1402806D01*
G01X12503517Y-1391376D01*
G01X13394694Y-1288506D02*
G01X13394694Y-1408648D01*
G01X13394694Y-1288506D02*
G01X13446256Y-1288506D01*
G01X13463274Y-1294348D01*
G01X13469116Y-1299936D01*
G01X13474704Y-1311366D01*
G01X13474704Y-1328638D01*
G01X13469116Y-1340068D01*
G01X13463274Y-1345656D01*
G01X13446256Y-1351498D01*
G01X13394694Y-1351498D01*
G01X13591036Y-1328638D02*
G01X13591036Y-1408648D01*
G01X13591036Y-1345656D02*
G01X13579606Y-1334226D01*
G01X13568176Y-1328638D01*
G01X13551158Y-1328638D01*
G01X13539728Y-1334226D01*
G01X13528298Y-1345656D01*
G01X13522456Y-1362928D01*
G01X13522456Y-1374358D01*
G01X13528298Y-1391376D01*
G01X13539728Y-1402806D01*
G01X13551158Y-1408648D01*
G01X13568176Y-1408648D01*
G01X13579606Y-1402806D01*
G01X13591036Y-1391376D01*
G01X13707368Y-1288506D02*
G01X13707368Y-1408648D01*
G01X13707368Y-1345656D02*
G01X13695938Y-1334226D01*
G01X13684508Y-1328638D01*
G01X13667490Y-1328638D01*
G01X13656060Y-1334226D01*
G01X13644630Y-1345656D01*
G01X13638788Y-1362928D01*
G01X13638788Y-1374358D01*
G01X13644630Y-1391376D01*
G01X13656060Y-1402806D01*
G01X13667490Y-1408648D01*
G01X13684508Y-1408648D01*
G01X13695938Y-1402806D01*
G01X13707368Y-1391376D01*
G01X13963146Y-1305778D02*
G01X13951716Y-1294348D01*
G01X13934698Y-1288506D01*
G01X13911838Y-1288506D01*
G01X13894566Y-1294348D01*
G01X13883136Y-1305778D01*
G01X13883136Y-1317208D01*
G01X13888978Y-1328638D01*
G01X13894566Y-1334226D01*
G01X13905996Y-1340068D01*
G01X13940286Y-1351498D01*
G01X13951716Y-1357086D01*
G01X13957558Y-1362928D01*
G01X13963146Y-1374358D01*
G01X13963146Y-1391376D01*
G01X13951716Y-1402806D01*
G01X13934698Y-1408648D01*
G01X13911838Y-1408648D01*
G01X13894566Y-1402806D01*
G01X13883136Y-1391376D01*
G01X14010898Y-1288506D02*
G01X14010898Y-1408648D01*
G01X14010898Y-1351498D02*
G01X14028170Y-1334226D01*
G01X14039600Y-1328638D01*
G01X14056618Y-1328638D01*
G01X14068048Y-1334226D01*
G01X14073890Y-1351498D01*
G01X14073890Y-1408648D01*
G01X14190222Y-1328638D02*
G01X14190222Y-1408648D01*
G01X14190222Y-1345656D02*
G01X14178792Y-1334226D01*
G01X14167362Y-1328638D01*
G01X14150344Y-1328638D01*
G01X14138914Y-1334226D01*
G01X14127484Y-1345656D01*
G01X14121642Y-1362928D01*
G01X14121642Y-1374358D01*
G01X14127484Y-1391376D01*
G01X14138914Y-1402806D01*
G01X14150344Y-1408648D01*
G01X14167362Y-1408648D01*
G01X14178792Y-1402806D01*
G01X14190222Y-1391376D01*
G01X14237974Y-1328638D02*
G01X14237974Y-1448526D01*
G01X14237974Y-1345656D02*
G01X14249404Y-1334226D01*
G01X14260834Y-1328638D01*
G01X14278106Y-1328638D01*
G01X14289536Y-1334226D01*
G01X14300966Y-1345656D01*
G01X14306554Y-1362928D01*
G01X14306554Y-1374358D01*
G01X14300966Y-1391376D01*
G01X14289536Y-1402806D01*
G01X14278106Y-1408648D01*
G01X14260834Y-1408648D01*
G01X14249404Y-1402806D01*
G01X14237974Y-1391376D01*
G01X14354306Y-1362928D02*
G01X14422886Y-1362928D01*
G01X14422886Y-1351498D01*
G01X14417298Y-1340068D01*
G01X14411456Y-1334226D01*
G01X14400026Y-1328638D01*
G01X14383008Y-1328638D01*
G01X14371578Y-1334226D01*
G01X14360148Y-1345656D01*
G01X14354306Y-1362928D01*
G01X14354306Y-1374358D01*
G01X14360148Y-1391376D01*
G01X14371578Y-1402806D01*
G01X14383008Y-1408648D01*
G01X14400026Y-1408648D01*
G01X14411456Y-1402806D01*
G01X14422886Y-1391376D01*
G01X15314063Y-1288506D02*
G01X15314063Y-1408648D01*
G01X15314063Y-1408648D02*
G01X15382643Y-1408648D01*
G01X15498975Y-1328638D02*
G01X15498975Y-1408648D01*
G01X15498975Y-1345656D02*
G01X15487545Y-1334226D01*
G01X15476115Y-1328638D01*
G01X15459097Y-1328638D01*
G01X15447667Y-1334226D01*
G01X15436237Y-1345656D01*
G01X15430395Y-1362928D01*
G01X15430395Y-1374358D01*
G01X15436237Y-1391376D01*
G01X15447667Y-1402806D01*
G01X15459097Y-1408648D01*
G01X15476115Y-1408648D01*
G01X15487545Y-1402806D01*
G01X15498975Y-1391376D01*
G01X15552569Y-1328638D02*
G01X15586859Y-1408648D01*
G01X15621149Y-1328638D02*
G01X15586859Y-1408648D01*
G01X15575429Y-1431508D01*
G01X15563999Y-1442938D01*
G01X15552569Y-1448526D01*
G01X15546727Y-1448526D01*
G01X15668901Y-1362928D02*
G01X15737481Y-1362928D01*
G01X15737481Y-1351498D01*
G01X15731893Y-1340068D01*
G01X15726051Y-1334226D01*
G01X15714621Y-1328638D01*
G01X15697603Y-1328638D01*
G01X15686173Y-1334226D01*
G01X15674743Y-1345656D01*
G01X15668901Y-1362928D01*
G01X15668901Y-1374358D01*
G01X15674743Y-1391376D01*
G01X15686173Y-1402806D01*
G01X15697603Y-1408648D01*
G01X15714621Y-1408648D01*
G01X15726051Y-1402806D01*
G01X15737481Y-1391376D01*
G01X15785233Y-1328638D02*
G01X15785233Y-1408648D01*
G01X15785233Y-1362928D02*
G01X15791075Y-1345656D01*
G01X15802505Y-1334226D01*
G01X15813935Y-1328638D01*
G01X15830953Y-1328638D01*
G01X16006721Y-1288506D02*
G01X16006721Y-1408648D01*
G01X16006721Y-1288506D02*
G01X16058283Y-1288506D01*
G01X16075301Y-1294348D01*
G01X16081143Y-1299936D01*
G01X16086731Y-1311366D01*
G01X16086731Y-1328638D01*
G01X16081143Y-1340068D01*
G01X16075301Y-1345656D01*
G01X16058283Y-1351498D01*
G01X16006721Y-1351498D01*
G01X16203063Y-1328638D02*
G01X16203063Y-1408648D01*
G01X16203063Y-1345656D02*
G01X16191633Y-1334226D01*
G01X16180203Y-1328638D01*
G01X16163185Y-1328638D01*
G01X16151755Y-1334226D01*
G01X16140325Y-1345656D01*
G01X16134483Y-1362928D01*
G01X16134483Y-1374358D01*
G01X16140325Y-1391376D01*
G01X16151755Y-1402806D01*
G01X16163185Y-1408648D01*
G01X16180203Y-1408648D01*
G01X16191633Y-1402806D01*
G01X16203063Y-1391376D01*
G01X16250815Y-1288506D02*
G01X16256657Y-1294348D01*
G01X16262245Y-1288506D01*
G01X16256657Y-1282918D01*
G01X16250815Y-1288506D01*
G01X16256657Y-1328638D02*
G01X16256657Y-1408648D01*
G01X16309997Y-1328638D02*
G01X16309997Y-1408648D01*
G01X16309997Y-1362928D02*
G01X16315839Y-1345656D01*
G01X16327269Y-1334226D01*
G01X16338699Y-1328638D01*
G01X16355717Y-1328638D01*
G01X3541816Y-1897779D02*
G01X3541816Y-1891937D01*
G01X3547404Y-1880507D01*
G01X3553246Y-1874919D01*
G01X3564676Y-1869077D01*
G01X3587536Y-1869077D01*
G01X3598966Y-1874919D01*
G01X3604554Y-1880507D01*
G01X3610396Y-1891937D01*
G01X3610396Y-1903367D01*
G01X3604554Y-1914797D01*
G01X3593124Y-1932069D01*
G01X3535974Y-1989219D01*
G01X3615984Y-1989219D01*
G01X4961567Y-1869077D02*
G01X5024559Y-1869077D01*
G01X4990269Y-1914797D01*
G01X5007287Y-1914797D01*
G01X5018717Y-1920639D01*
G01X5024559Y-1926227D01*
G01X5030147Y-1943499D01*
G01X5030147Y-1954929D01*
G01X5024559Y-1971947D01*
G01X5013129Y-1983377D01*
G01X4995857Y-1989219D01*
G01X4978839Y-1989219D01*
G01X4961567Y-1983377D01*
G01X4955979Y-1977789D01*
G01X4950137Y-1966359D01*
G01X5146479Y-1869077D02*
G01X5089329Y-1869077D01*
G01X5083741Y-1920639D01*
G01X5089329Y-1914797D01*
G01X5106601Y-1909209D01*
G01X5123619Y-1909209D01*
G01X5140891Y-1914797D01*
G01X5152321Y-1926227D01*
G01X5157909Y-1943499D01*
G01X5157909Y-1954929D01*
G01X5152321Y-1971947D01*
G01X5140891Y-1983377D01*
G01X5123619Y-1989219D01*
G01X5106601Y-1989219D01*
G01X5089329Y-1983377D01*
G01X5083741Y-1977789D01*
G01X5077899Y-1966359D01*
G01X5211503Y-1960517D02*
G01X5205661Y-1966359D01*
G01X5211503Y-1971947D01*
G01X5217091Y-1966359D01*
G01X5211503Y-1960517D01*
G01X5321993Y-1869077D02*
G01X5264843Y-1949087D01*
G01X5350695Y-1949087D01*
G01X5321993Y-1869077D02*
G01X5321993Y-1989219D01*
G01X5398447Y-1909209D02*
G01X5461439Y-1989219D01*
G01X5461439Y-1909209D02*
G01X5398447Y-1989219D01*
G01X5520621Y-1869077D02*
G01X5583613Y-1869077D01*
G01X5549323Y-1914797D01*
G01X5566341Y-1914797D01*
G01X5577771Y-1920639D01*
G01X5583613Y-1926227D01*
G01X5589201Y-1943499D01*
G01X5589201Y-1954929D01*
G01X5583613Y-1971947D01*
G01X5572183Y-1983377D01*
G01X5554911Y-1989219D01*
G01X5537893Y-1989219D01*
G01X5520621Y-1983377D01*
G01X5515033Y-1977789D01*
G01X5509191Y-1966359D01*
G01X5705533Y-1869077D02*
G01X5648383Y-1869077D01*
G01X5642795Y-1920639D01*
G01X5648383Y-1914797D01*
G01X5665655Y-1909209D01*
G01X5682673Y-1909209D01*
G01X5699945Y-1914797D01*
G01X5711375Y-1926227D01*
G01X5716963Y-1943499D01*
G01X5716963Y-1954929D01*
G01X5711375Y-1971947D01*
G01X5699945Y-1983377D01*
G01X5682673Y-1989219D01*
G01X5665655Y-1989219D01*
G01X5648383Y-1983377D01*
G01X5642795Y-1977789D01*
G01X5636953Y-1966359D01*
G01X5770557Y-1960517D02*
G01X5764715Y-1966359D01*
G01X5770557Y-1971947D01*
G01X5776145Y-1966359D01*
G01X5770557Y-1960517D01*
G01X5881047Y-1869077D02*
G01X5823897Y-1949087D01*
G01X5909749Y-1949087D01*
G01X5881047Y-1869077D02*
G01X5881047Y-1989219D01*
G01X5957501Y-1909209D02*
G01X5957501Y-1989219D01*
G01X5957501Y-1932069D02*
G01X5974773Y-1914797D01*
G01X5986203Y-1909209D01*
G01X6003221Y-1909209D01*
G01X6014651Y-1914797D01*
G01X6020493Y-1932069D01*
G01X6020493Y-1989219D01*
G01X6020493Y-1932069D02*
G01X6037511Y-1914797D01*
G01X6048941Y-1909209D01*
G01X6066213Y-1909209D01*
G01X6077643Y-1914797D01*
G01X6083231Y-1932069D01*
G01X6083231Y-1989219D01*
G01X6130983Y-1869077D02*
G01X6136825Y-1874919D01*
G01X6142413Y-1869077D01*
G01X6136825Y-1863489D01*
G01X6130983Y-1869077D01*
G01X6136825Y-1909209D02*
G01X6136825Y-1989219D01*
G01X6190165Y-1869077D02*
G01X6190165Y-1989219D01*
G01X6278049Y-1846217D02*
G01X6266619Y-1857647D01*
G01X6255189Y-1874919D01*
G01X6243759Y-1897779D01*
G01X6237917Y-1926227D01*
G01X6237917Y-1949087D01*
G01X6243759Y-1977789D01*
G01X6255189Y-2000649D01*
G01X6266619Y-2017667D01*
G01X6278049Y-2029097D01*
G01X6360091Y-1869077D02*
G01X6343073Y-1874919D01*
G01X6331643Y-1891937D01*
G01X6325801Y-1920639D01*
G01X6325801Y-1937657D01*
G01X6331643Y-1966359D01*
G01X6343073Y-1983377D01*
G01X6360091Y-1989219D01*
G01X6371521Y-1989219D01*
G01X6388793Y-1983377D01*
G01X6400223Y-1966359D01*
G01X6405811Y-1937657D01*
G01X6405811Y-1920639D01*
G01X6400223Y-1891937D01*
G01X6388793Y-1874919D01*
G01X6371521Y-1869077D01*
G01X6360091Y-1869077D01*
G01X6459405Y-1960517D02*
G01X6453563Y-1966359D01*
G01X6459405Y-1971947D01*
G01X6464993Y-1966359D01*
G01X6459405Y-1960517D01*
G01X6541447Y-1869077D02*
G01X6524175Y-1874919D01*
G01X6518587Y-1886349D01*
G01X6518587Y-1897779D01*
G01X6524175Y-1909209D01*
G01X6535605Y-1914797D01*
G01X6558465Y-1920639D01*
G01X6575737Y-1926227D01*
G01X6587167Y-1937657D01*
G01X6592755Y-1949087D01*
G01X6592755Y-1966359D01*
G01X6587167Y-1977789D01*
G01X6581325Y-1983377D01*
G01X6564307Y-1989219D01*
G01X6541447Y-1989219D01*
G01X6524175Y-1983377D01*
G01X6518587Y-1977789D01*
G01X6512745Y-1966359D01*
G01X6512745Y-1949087D01*
G01X6518587Y-1937657D01*
G01X6530017Y-1926227D01*
G01X6547035Y-1920639D01*
G01X6569895Y-1914797D01*
G01X6581325Y-1909209D01*
G01X6587167Y-1897779D01*
G01X6587167Y-1886349D01*
G01X6581325Y-1874919D01*
G01X6564307Y-1869077D01*
G01X6541447Y-1869077D01*
G01X6714929Y-1909209D02*
G01X6709087Y-1926227D01*
G01X6697657Y-1937657D01*
G01X6680639Y-1943499D01*
G01X6674797Y-1943499D01*
G01X6657779Y-1937657D01*
G01X6646349Y-1926227D01*
G01X6640507Y-1909209D01*
G01X6640507Y-1903367D01*
G01X6646349Y-1886349D01*
G01X6657779Y-1874919D01*
G01X6674797Y-1869077D01*
G01X6680639Y-1869077D01*
G01X6697657Y-1874919D01*
G01X6709087Y-1886349D01*
G01X6714929Y-1909209D01*
G01X6714929Y-1937657D01*
G01X6709087Y-1966359D01*
G01X6697657Y-1983377D01*
G01X6680639Y-1989219D01*
G01X6669209Y-1989219D01*
G01X6651937Y-1983377D01*
G01X6646349Y-1971947D01*
G01X6837103Y-1909209D02*
G01X6831261Y-1926227D01*
G01X6819831Y-1937657D01*
G01X6802813Y-1943499D01*
G01X6796971Y-1943499D01*
G01X6779953Y-1937657D01*
G01X6768523Y-1926227D01*
G01X6762681Y-1909209D01*
G01X6762681Y-1903367D01*
G01X6768523Y-1886349D01*
G01X6779953Y-1874919D01*
G01X6796971Y-1869077D01*
G01X6802813Y-1869077D01*
G01X6819831Y-1874919D01*
G01X6831261Y-1886349D01*
G01X6837103Y-1909209D01*
G01X6837103Y-1937657D01*
G01X6831261Y-1966359D01*
G01X6819831Y-1983377D01*
G01X6802813Y-1989219D01*
G01X6791383Y-1989219D01*
G01X6774111Y-1983377D01*
G01X6768523Y-1971947D01*
G01X6884855Y-1909209D02*
G01X6947847Y-1989219D01*
G01X6947847Y-1909209D02*
G01X6884855Y-1989219D01*
G01X7029889Y-1869077D02*
G01X7012871Y-1874919D01*
G01X7001441Y-1891937D01*
G01X6995599Y-1920639D01*
G01X6995599Y-1937657D01*
G01X7001441Y-1966359D01*
G01X7012871Y-1983377D01*
G01X7029889Y-1989219D01*
G01X7041319Y-1989219D01*
G01X7058591Y-1983377D01*
G01X7070021Y-1966359D01*
G01X7075609Y-1937657D01*
G01X7075609Y-1920639D01*
G01X7070021Y-1891937D01*
G01X7058591Y-1874919D01*
G01X7041319Y-1869077D01*
G01X7029889Y-1869077D01*
G01X7129203Y-1960517D02*
G01X7123361Y-1966359D01*
G01X7129203Y-1971947D01*
G01X7134791Y-1966359D01*
G01X7129203Y-1960517D01*
G01X7211245Y-1869077D02*
G01X7193973Y-1874919D01*
G01X7188385Y-1886349D01*
G01X7188385Y-1897779D01*
G01X7193973Y-1909209D01*
G01X7205403Y-1914797D01*
G01X7228263Y-1920639D01*
G01X7245535Y-1926227D01*
G01X7256965Y-1937657D01*
G01X7262553Y-1949087D01*
G01X7262553Y-1966359D01*
G01X7256965Y-1977789D01*
G01X7251123Y-1983377D01*
G01X7234105Y-1989219D01*
G01X7211245Y-1989219D01*
G01X7193973Y-1983377D01*
G01X7188385Y-1977789D01*
G01X7182543Y-1966359D01*
G01X7182543Y-1949087D01*
G01X7188385Y-1937657D01*
G01X7199815Y-1926227D01*
G01X7216833Y-1920639D01*
G01X7239693Y-1914797D01*
G01X7251123Y-1909209D01*
G01X7256965Y-1897779D01*
G01X7256965Y-1886349D01*
G01X7251123Y-1874919D01*
G01X7234105Y-1869077D01*
G01X7211245Y-1869077D01*
G01X7384727Y-1909209D02*
G01X7378885Y-1926227D01*
G01X7367455Y-1937657D01*
G01X7350437Y-1943499D01*
G01X7344595Y-1943499D01*
G01X7327577Y-1937657D01*
G01X7316147Y-1926227D01*
G01X7310305Y-1909209D01*
G01X7310305Y-1903367D01*
G01X7316147Y-1886349D01*
G01X7327577Y-1874919D01*
G01X7344595Y-1869077D01*
G01X7350437Y-1869077D01*
G01X7367455Y-1874919D01*
G01X7378885Y-1886349D01*
G01X7384727Y-1909209D01*
G01X7384727Y-1937657D01*
G01X7378885Y-1966359D01*
G01X7367455Y-1983377D01*
G01X7350437Y-1989219D01*
G01X7339007Y-1989219D01*
G01X7321735Y-1983377D01*
G01X7316147Y-1971947D01*
G01X7506901Y-1909209D02*
G01X7501059Y-1926227D01*
G01X7489629Y-1937657D01*
G01X7472611Y-1943499D01*
G01X7466769Y-1943499D01*
G01X7449751Y-1937657D01*
G01X7438321Y-1926227D01*
G01X7432479Y-1909209D01*
G01X7432479Y-1903367D01*
G01X7438321Y-1886349D01*
G01X7449751Y-1874919D01*
G01X7466769Y-1869077D01*
G01X7472611Y-1869077D01*
G01X7489629Y-1874919D01*
G01X7501059Y-1886349D01*
G01X7506901Y-1909209D01*
G01X7506901Y-1937657D01*
G01X7501059Y-1966359D01*
G01X7489629Y-1983377D01*
G01X7472611Y-1989219D01*
G01X7461181Y-1989219D01*
G01X7443909Y-1983377D01*
G01X7438321Y-1971947D01*
G01X7554653Y-1909209D02*
G01X7554653Y-1989219D01*
G01X7554653Y-1932069D02*
G01X7571925Y-1914797D01*
G01X7583355Y-1909209D01*
G01X7600373Y-1909209D01*
G01X7611803Y-1914797D01*
G01X7617645Y-1932069D01*
G01X7617645Y-1989219D01*
G01X7617645Y-1932069D02*
G01X7634663Y-1914797D01*
G01X7646093Y-1909209D01*
G01X7663365Y-1909209D01*
G01X7674795Y-1914797D01*
G01X7680383Y-1932069D01*
G01X7680383Y-1989219D01*
G01X7728135Y-1909209D02*
G01X7728135Y-1989219D01*
G01X7728135Y-1932069D02*
G01X7745407Y-1914797D01*
G01X7756837Y-1909209D01*
G01X7773855Y-1909209D01*
G01X7785285Y-1914797D01*
G01X7791127Y-1932069D01*
G01X7791127Y-1989219D01*
G01X7791127Y-1932069D02*
G01X7808145Y-1914797D01*
G01X7819575Y-1909209D01*
G01X7836847Y-1909209D01*
G01X7848277Y-1914797D01*
G01X7853865Y-1932069D01*
G01X7853865Y-1989219D01*
G01X7901617Y-1846217D02*
G01X7913047Y-1857647D01*
G01X7924477Y-1874919D01*
G01X7935907Y-1897779D01*
G01X7941749Y-1926227D01*
G01X7941749Y-1949087D01*
G01X7935907Y-1977789D01*
G01X7924477Y-2000649D01*
G01X7913047Y-2017667D01*
G01X7901617Y-2029097D01*
G01X8832927Y-1869077D02*
G01X8832927Y-1989219D01*
G01X8832927Y-1869077D02*
G01X8884489Y-1869077D01*
G01X8901507Y-1874919D01*
G01X8907349Y-1880507D01*
G01X8912937Y-1891937D01*
G01X8912937Y-1909209D01*
G01X8907349Y-1920639D01*
G01X8901507Y-1926227D01*
G01X8884489Y-1932069D01*
G01X8832927Y-1932069D01*
G01X9000821Y-1869077D02*
G01X9000821Y-1989219D01*
G01X8960689Y-1869077D02*
G01X9040699Y-1869077D01*
G01X9088451Y-1869077D02*
G01X9088451Y-1989219D01*
G01X9168461Y-1869077D02*
G01X9168461Y-1989219D01*
G01X9088451Y-1926227D02*
G01X9168461Y-1926227D01*
G01X10294334Y-1869077D02*
G01X10294334Y-1989219D01*
G01X10294334Y-1869077D02*
G01X10345896Y-1869077D01*
G01X10362914Y-1874919D01*
G01X10368756Y-1880507D01*
G01X10374344Y-1891937D01*
G01X10374344Y-1903367D01*
G01X10368756Y-1914797D01*
G01X10362914Y-1920639D01*
G01X10345896Y-1926227D01*
G01X10294334Y-1926227D01*
G01X10334466Y-1926227D02*
G01X10374344Y-1989219D01*
G01X10450798Y-1909209D02*
G01X10439368Y-1914797D01*
G01X10427938Y-1926227D01*
G01X10422096Y-1943499D01*
G01X10422096Y-1954929D01*
G01X10427938Y-1971947D01*
G01X10439368Y-1983377D01*
G01X10450798Y-1989219D01*
G01X10467816Y-1989219D01*
G01X10479246Y-1983377D01*
G01X10490676Y-1971947D01*
G01X10496518Y-1954929D01*
G01X10496518Y-1943499D01*
G01X10490676Y-1926227D01*
G01X10479246Y-1914797D01*
G01X10467816Y-1909209D01*
G01X10450798Y-1909209D01*
G01X10544270Y-1909209D02*
G01X10544270Y-1966359D01*
G01X10550112Y-1983377D01*
G01X10561542Y-1989219D01*
G01X10578560Y-1989219D01*
G01X10589990Y-1983377D01*
G01X10607262Y-1966359D01*
G01X10607262Y-1909209D02*
G01X10607262Y-1989219D01*
G01X10655014Y-1909209D02*
G01X10655014Y-1989219D01*
G01X10655014Y-1932069D02*
G01X10672286Y-1914797D01*
G01X10683716Y-1909209D01*
G01X10700734Y-1909209D01*
G01X10712164Y-1914797D01*
G01X10718006Y-1932069D01*
G01X10718006Y-1989219D01*
G01X10834338Y-1869077D02*
G01X10834338Y-1989219D01*
G01X10834338Y-1926227D02*
G01X10822908Y-1914797D01*
G01X10811478Y-1909209D01*
G01X10794460Y-1909209D01*
G01X10783030Y-1914797D01*
G01X10771600Y-1926227D01*
G01X10765758Y-1943499D01*
G01X10765758Y-1954929D01*
G01X10771600Y-1971947D01*
G01X10783030Y-1983377D01*
G01X10794460Y-1989219D01*
G01X10811478Y-1989219D01*
G01X10822908Y-1983377D01*
G01X10834338Y-1971947D01*
G01X11725515Y-1869077D02*
G01X11725515Y-1989219D01*
G01X11725515Y-1869077D02*
G01X11777077Y-1869077D01*
G01X11794095Y-1874919D01*
G01X11799937Y-1880507D01*
G01X11805525Y-1891937D01*
G01X11805525Y-1909209D01*
G01X11799937Y-1920639D01*
G01X11794095Y-1926227D01*
G01X11777077Y-1932069D01*
G01X11725515Y-1932069D01*
G01X11921857Y-1909209D02*
G01X11921857Y-1989219D01*
G01X11921857Y-1926227D02*
G01X11910427Y-1914797D01*
G01X11898997Y-1909209D01*
G01X11881979Y-1909209D01*
G01X11870549Y-1914797D01*
G01X11859119Y-1926227D01*
G01X11853277Y-1943499D01*
G01X11853277Y-1954929D01*
G01X11859119Y-1971947D01*
G01X11870549Y-1983377D01*
G01X11881979Y-1989219D01*
G01X11898997Y-1989219D01*
G01X11910427Y-1983377D01*
G01X11921857Y-1971947D01*
G01X12038189Y-1869077D02*
G01X12038189Y-1989219D01*
G01X12038189Y-1926227D02*
G01X12026759Y-1914797D01*
G01X12015329Y-1909209D01*
G01X11998311Y-1909209D01*
G01X11986881Y-1914797D01*
G01X11975451Y-1926227D01*
G01X11969609Y-1943499D01*
G01X11969609Y-1954929D01*
G01X11975451Y-1971947D01*
G01X11986881Y-1983377D01*
G01X11998311Y-1989219D01*
G01X12015329Y-1989219D01*
G01X12026759Y-1983377D01*
G01X12038189Y-1971947D01*
G01X13394694Y-1869077D02*
G01X13394694Y-1989219D01*
G01X13394694Y-1869077D02*
G01X13446256Y-1869077D01*
G01X13463274Y-1874919D01*
G01X13469116Y-1880507D01*
G01X13474704Y-1891937D01*
G01X13474704Y-1903367D01*
G01X13469116Y-1914797D01*
G01X13463274Y-1920639D01*
G01X13446256Y-1926227D01*
G01X13394694Y-1926227D01*
G01X13434826Y-1926227D02*
G01X13474704Y-1989219D01*
G01X13551158Y-1909209D02*
G01X13539728Y-1914797D01*
G01X13528298Y-1926227D01*
G01X13522456Y-1943499D01*
G01X13522456Y-1954929D01*
G01X13528298Y-1971947D01*
G01X13539728Y-1983377D01*
G01X13551158Y-1989219D01*
G01X13568176Y-1989219D01*
G01X13579606Y-1983377D01*
G01X13591036Y-1971947D01*
G01X13596878Y-1954929D01*
G01X13596878Y-1943499D01*
G01X13591036Y-1926227D01*
G01X13579606Y-1914797D01*
G01X13568176Y-1909209D01*
G01X13551158Y-1909209D01*
G01X13644630Y-1909209D02*
G01X13644630Y-1966359D01*
G01X13650472Y-1983377D01*
G01X13661902Y-1989219D01*
G01X13678920Y-1989219D01*
G01X13690350Y-1983377D01*
G01X13707622Y-1966359D01*
G01X13707622Y-1909209D02*
G01X13707622Y-1989219D01*
G01X13755374Y-1909209D02*
G01X13755374Y-1989219D01*
G01X13755374Y-1932069D02*
G01X13772646Y-1914797D01*
G01X13784076Y-1909209D01*
G01X13801094Y-1909209D01*
G01X13812524Y-1914797D01*
G01X13818366Y-1932069D01*
G01X13818366Y-1989219D01*
G01X13934698Y-1869077D02*
G01X13934698Y-1989219D01*
G01X13934698Y-1926227D02*
G01X13923268Y-1914797D01*
G01X13911838Y-1909209D01*
G01X13894820Y-1909209D01*
G01X13883390Y-1914797D01*
G01X13871960Y-1926227D01*
G01X13866118Y-1943499D01*
G01X13866118Y-1954929D01*
G01X13871960Y-1971947D01*
G01X13883390Y-1983377D01*
G01X13894820Y-1989219D01*
G01X13911838Y-1989219D01*
G01X13923268Y-1983377D01*
G01X13934698Y-1971947D01*
G01X15354195Y-1869077D02*
G01X15354195Y-1989219D01*
G01X15314063Y-1869077D02*
G01X15394073Y-1869077D01*
G01X15470527Y-1909209D02*
G01X15459097Y-1914797D01*
G01X15447667Y-1926227D01*
G01X15441825Y-1943499D01*
G01X15441825Y-1954929D01*
G01X15447667Y-1971947D01*
G01X15459097Y-1983377D01*
G01X15470527Y-1989219D01*
G01X15487545Y-1989219D01*
G01X15498975Y-1983377D01*
G01X15510405Y-1971947D01*
G01X15516247Y-1954929D01*
G01X15516247Y-1943499D01*
G01X15510405Y-1926227D01*
G01X15498975Y-1914797D01*
G01X15487545Y-1909209D01*
G01X15470527Y-1909209D01*
G01X15563999Y-1909209D02*
G01X15563999Y-2029097D01*
G01X15563999Y-1926227D02*
G01X15575429Y-1914797D01*
G01X15586859Y-1909209D01*
G01X15604131Y-1909209D01*
G01X15615561Y-1914797D01*
G01X15626991Y-1926227D01*
G01X15632579Y-1943499D01*
G01X15632579Y-1954929D01*
G01X15626991Y-1971947D01*
G01X15615561Y-1983377D01*
G01X15604131Y-1989219D01*
G01X15586859Y-1989219D01*
G01X15575429Y-1983377D01*
G01X15563999Y-1971947D01*
G01X15808347Y-1869077D02*
G01X15808347Y-1989219D01*
G01X15808347Y-1989219D02*
G01X15876927Y-1989219D01*
G01X15993259Y-1909209D02*
G01X15993259Y-1989219D01*
G01X15993259Y-1926227D02*
G01X15981829Y-1914797D01*
G01X15970399Y-1909209D01*
G01X15953381Y-1909209D01*
G01X15941951Y-1914797D01*
G01X15930521Y-1926227D01*
G01X15924679Y-1943499D01*
G01X15924679Y-1954929D01*
G01X15930521Y-1971947D01*
G01X15941951Y-1983377D01*
G01X15953381Y-1989219D01*
G01X15970399Y-1989219D01*
G01X15981829Y-1983377D01*
G01X15993259Y-1971947D01*
G01X16046853Y-1909209D02*
G01X16081143Y-1989219D01*
G01X16115433Y-1909209D02*
G01X16081143Y-1989219D01*
G01X16069713Y-2012079D01*
G01X16058283Y-2023509D01*
G01X16046853Y-2029097D01*
G01X16041011Y-2029097D01*
G01X16163185Y-1943499D02*
G01X16231765Y-1943499D01*
G01X16231765Y-1932069D01*
G01X16226177Y-1920639D01*
G01X16220335Y-1914797D01*
G01X16208905Y-1909209D01*
G01X16191887Y-1909209D01*
G01X16180457Y-1914797D01*
G01X16169027Y-1926227D01*
G01X16163185Y-1943499D01*
G01X16163185Y-1954929D01*
G01X16169027Y-1971947D01*
G01X16180457Y-1983377D01*
G01X16191887Y-1989219D01*
G01X16208905Y-1989219D01*
G01X16220335Y-1983377D01*
G01X16231765Y-1971947D01*
G01X16279517Y-1909209D02*
G01X16279517Y-1989219D01*
G01X16279517Y-1943499D02*
G01X16285359Y-1926227D01*
G01X16296789Y-1914797D01*
G01X16308219Y-1909209D01*
G01X16325237Y-1909209D01*
G01X16372989Y-1937657D02*
G01X16475859Y-1937657D01*
G01X16523611Y-1869077D02*
G01X16523611Y-1989219D01*
G01X16523611Y-1869077D02*
G01X16575173Y-1869077D01*
G01X16592191Y-1874919D01*
G01X16598033Y-1880507D01*
G01X16603621Y-1891937D01*
G01X16603621Y-1903367D01*
G01X16598033Y-1914797D01*
G01X16592191Y-1920639D01*
G01X16575173Y-1926227D01*
G01X16523611Y-1926227D02*
G01X16575173Y-1926227D01*
G01X16592191Y-1932069D01*
G01X16598033Y-1937657D01*
G01X16603621Y-1949087D01*
G01X16603621Y-1966359D01*
G01X16598033Y-1977789D01*
G01X16592191Y-1983377D01*
G01X16575173Y-1989219D01*
G01X16523611Y-1989219D01*
G01X16680075Y-1909209D02*
G01X16668645Y-1914797D01*
G01X16657215Y-1926227D01*
G01X16651373Y-1943499D01*
G01X16651373Y-1954929D01*
G01X16657215Y-1971947D01*
G01X16668645Y-1983377D01*
G01X16680075Y-1989219D01*
G01X16697093Y-1989219D01*
G01X16708523Y-1983377D01*
G01X16719953Y-1971947D01*
G01X16725795Y-1954929D01*
G01X16725795Y-1943499D01*
G01X16719953Y-1926227D01*
G01X16708523Y-1914797D01*
G01X16697093Y-1909209D01*
G01X16680075Y-1909209D01*
G01X16790819Y-1869077D02*
G01X16790819Y-1966359D01*
G01X16796407Y-1983377D01*
G01X16807837Y-1989219D01*
G01X16819267Y-1989219D01*
G01X16773547Y-1909209D02*
G01X16813679Y-1909209D01*
G01X16884291Y-1869077D02*
G01X16884291Y-1966359D01*
G01X16889879Y-1983377D01*
G01X16901309Y-1989219D01*
G01X16912739Y-1989219D01*
G01X16867019Y-1909209D02*
G01X16907151Y-1909209D01*
G01X16989193Y-1909209D02*
G01X16977763Y-1914797D01*
G01X16966333Y-1926227D01*
G01X16960491Y-1943499D01*
G01X16960491Y-1954929D01*
G01X16966333Y-1971947D01*
G01X16977763Y-1983377D01*
G01X16989193Y-1989219D01*
G01X17006211Y-1989219D01*
G01X17017641Y-1983377D01*
G01X17029071Y-1971947D01*
G01X17034913Y-1954929D01*
G01X17034913Y-1943499D01*
G01X17029071Y-1926227D01*
G01X17017641Y-1914797D01*
G01X17006211Y-1909209D01*
G01X16989193Y-1909209D01*
G01X17082665Y-1909209D02*
G01X17082665Y-1989219D01*
G01X17082665Y-1932069D02*
G01X17099937Y-1914797D01*
G01X17111367Y-1909209D01*
G01X17128385Y-1909209D01*
G01X17139815Y-1914797D01*
G01X17145657Y-1932069D01*
G01X17145657Y-1989219D01*
G01X17145657Y-1932069D02*
G01X17162675Y-1914797D01*
G01X17174105Y-1909209D01*
G01X17191377Y-1909209D01*
G01X17202807Y-1914797D01*
G01X17208395Y-1932069D01*
G01X17208395Y-1989219D01*
G01X17384163Y-1869077D02*
G01X17384163Y-1989219D01*
G01X17384163Y-1989219D02*
G01X17452743Y-1989219D01*
G01X17569075Y-1909209D02*
G01X17569075Y-1989219D01*
G01X17569075Y-1926227D02*
G01X17557645Y-1914797D01*
G01X17546215Y-1909209D01*
G01X17529197Y-1909209D01*
G01X17517767Y-1914797D01*
G01X17506337Y-1926227D01*
G01X17500495Y-1943499D01*
G01X17500495Y-1954929D01*
G01X17506337Y-1971947D01*
G01X17517767Y-1983377D01*
G01X17529197Y-1989219D01*
G01X17546215Y-1989219D01*
G01X17557645Y-1983377D01*
G01X17569075Y-1971947D01*
G01X17622669Y-1909209D02*
G01X17656959Y-1989219D01*
G01X17691249Y-1909209D02*
G01X17656959Y-1989219D01*
G01X17645529Y-2012079D01*
G01X17634099Y-2023509D01*
G01X17622669Y-2029097D01*
G01X17616827Y-2029097D01*
G01X17739001Y-1943499D02*
G01X17807581Y-1943499D01*
G01X17807581Y-1932069D01*
G01X17801993Y-1920639D01*
G01X17796151Y-1914797D01*
G01X17784721Y-1909209D01*
G01X17767703Y-1909209D01*
G01X17756273Y-1914797D01*
G01X17744843Y-1926227D01*
G01X17739001Y-1943499D01*
G01X17739001Y-1954929D01*
G01X17744843Y-1971947D01*
G01X17756273Y-1983377D01*
G01X17767703Y-1989219D01*
G01X17784721Y-1989219D01*
G01X17796151Y-1983377D01*
G01X17807581Y-1971947D01*
G01X17855333Y-1909209D02*
G01X17855333Y-1989219D01*
G01X17855333Y-1943499D02*
G01X17861175Y-1926227D01*
G01X17872605Y-1914797D01*
G01X17884035Y-1909209D01*
G01X17901053Y-1909209D01*
G01X3593124Y-2449649D02*
G01X3535974Y-2529659D01*
G01X3621826Y-2529659D01*
G01X3593124Y-2449649D02*
G01X3593124Y-2569791D01*
G01X4961567Y-2449649D02*
G01X5024559Y-2449649D01*
G01X4990269Y-2495369D01*
G01X5007287Y-2495369D01*
G01X5018717Y-2501211D01*
G01X5024559Y-2506799D01*
G01X5030147Y-2524071D01*
G01X5030147Y-2535501D01*
G01X5024559Y-2552519D01*
G01X5013129Y-2563949D01*
G01X4995857Y-2569791D01*
G01X4978839Y-2569791D01*
G01X4961567Y-2563949D01*
G01X4955979Y-2558361D01*
G01X4950137Y-2546931D01*
G01X5152321Y-2489781D02*
G01X5146479Y-2506799D01*
G01X5135049Y-2518229D01*
G01X5118031Y-2524071D01*
G01X5112189Y-2524071D01*
G01X5095171Y-2518229D01*
G01X5083741Y-2506799D01*
G01X5077899Y-2489781D01*
G01X5077899Y-2483939D01*
G01X5083741Y-2466921D01*
G01X5095171Y-2455491D01*
G01X5112189Y-2449649D01*
G01X5118031Y-2449649D01*
G01X5135049Y-2455491D01*
G01X5146479Y-2466921D01*
G01X5152321Y-2489781D01*
G01X5152321Y-2518229D01*
G01X5146479Y-2546931D01*
G01X5135049Y-2563949D01*
G01X5118031Y-2569791D01*
G01X5106601Y-2569791D01*
G01X5089329Y-2563949D01*
G01X5083741Y-2552519D01*
G01X5205915Y-2541089D02*
G01X5200073Y-2546931D01*
G01X5205915Y-2552519D01*
G01X5211503Y-2546931D01*
G01X5205915Y-2541089D01*
G01X5316405Y-2449649D02*
G01X5259255Y-2529659D01*
G01X5345107Y-2529659D01*
G01X5316405Y-2449649D02*
G01X5316405Y-2569791D01*
G01X5392859Y-2489781D02*
G01X5455851Y-2569791D01*
G01X5455851Y-2489781D02*
G01X5392859Y-2569791D01*
G01X5515033Y-2449649D02*
G01X5578025Y-2449649D01*
G01X5543735Y-2495369D01*
G01X5560753Y-2495369D01*
G01X5572183Y-2501211D01*
G01X5578025Y-2506799D01*
G01X5583613Y-2524071D01*
G01X5583613Y-2535501D01*
G01X5578025Y-2552519D01*
G01X5566595Y-2563949D01*
G01X5549323Y-2569791D01*
G01X5532305Y-2569791D01*
G01X5515033Y-2563949D01*
G01X5509445Y-2558361D01*
G01X5503603Y-2546931D01*
G01X5705787Y-2489781D02*
G01X5699945Y-2506799D01*
G01X5688515Y-2518229D01*
G01X5671497Y-2524071D01*
G01X5665655Y-2524071D01*
G01X5648637Y-2518229D01*
G01X5637207Y-2506799D01*
G01X5631365Y-2489781D01*
G01X5631365Y-2483939D01*
G01X5637207Y-2466921D01*
G01X5648637Y-2455491D01*
G01X5665655Y-2449649D01*
G01X5671497Y-2449649D01*
G01X5688515Y-2455491D01*
G01X5699945Y-2466921D01*
G01X5705787Y-2489781D01*
G01X5705787Y-2518229D01*
G01X5699945Y-2546931D01*
G01X5688515Y-2563949D01*
G01X5671497Y-2569791D01*
G01X5660067Y-2569791D01*
G01X5642795Y-2563949D01*
G01X5637207Y-2552519D01*
G01X5759381Y-2541089D02*
G01X5753539Y-2546931D01*
G01X5759381Y-2552519D01*
G01X5764969Y-2546931D01*
G01X5759381Y-2541089D01*
G01X5869871Y-2449649D02*
G01X5812721Y-2529659D01*
G01X5898573Y-2529659D01*
G01X5869871Y-2449649D02*
G01X5869871Y-2569791D01*
G01X5946325Y-2489781D02*
G01X5946325Y-2569791D01*
G01X5946325Y-2512641D02*
G01X5963597Y-2495369D01*
G01X5975027Y-2489781D01*
G01X5992045Y-2489781D01*
G01X6003475Y-2495369D01*
G01X6009317Y-2512641D01*
G01X6009317Y-2569791D01*
G01X6009317Y-2512641D02*
G01X6026335Y-2495369D01*
G01X6037765Y-2489781D01*
G01X6055037Y-2489781D01*
G01X6066467Y-2495369D01*
G01X6072055Y-2512641D01*
G01X6072055Y-2569791D01*
G01X6119807Y-2449649D02*
G01X6125649Y-2455491D01*
G01X6131237Y-2449649D01*
G01X6125649Y-2444061D01*
G01X6119807Y-2449649D01*
G01X6125649Y-2489781D02*
G01X6125649Y-2569791D01*
G01X6178989Y-2449649D02*
G01X6178989Y-2569791D01*
G01X6266873Y-2426789D02*
G01X6255443Y-2438219D01*
G01X6244013Y-2455491D01*
G01X6232583Y-2478351D01*
G01X6226741Y-2506799D01*
G01X6226741Y-2529659D01*
G01X6232583Y-2558361D01*
G01X6244013Y-2581221D01*
G01X6255443Y-2598239D01*
G01X6266873Y-2609669D01*
G01X6314625Y-2472509D02*
G01X6326055Y-2466921D01*
G01X6343327Y-2449649D01*
G01X6343327Y-2569791D01*
G01X6396921Y-2541089D02*
G01X6391079Y-2546931D01*
G01X6396921Y-2552519D01*
G01X6402509Y-2546931D01*
G01X6396921Y-2541089D01*
G01X6484551Y-2449649D02*
G01X6467533Y-2455491D01*
G01X6456103Y-2472509D01*
G01X6450261Y-2501211D01*
G01X6450261Y-2518229D01*
G01X6456103Y-2546931D01*
G01X6467533Y-2563949D01*
G01X6484551Y-2569791D01*
G01X6495981Y-2569791D01*
G01X6513253Y-2563949D01*
G01X6524683Y-2546931D01*
G01X6530271Y-2518229D01*
G01X6530271Y-2501211D01*
G01X6524683Y-2472509D01*
G01X6513253Y-2455491D01*
G01X6495981Y-2449649D01*
G01X6484551Y-2449649D01*
G01X6612313Y-2449649D02*
G01X6595295Y-2455491D01*
G01X6583865Y-2472509D01*
G01X6578023Y-2501211D01*
G01X6578023Y-2518229D01*
G01X6583865Y-2546931D01*
G01X6595295Y-2563949D01*
G01X6612313Y-2569791D01*
G01X6623743Y-2569791D01*
G01X6641015Y-2563949D01*
G01X6652445Y-2546931D01*
G01X6658033Y-2518229D01*
G01X6658033Y-2501211D01*
G01X6652445Y-2472509D01*
G01X6641015Y-2455491D01*
G01X6623743Y-2449649D01*
G01X6612313Y-2449649D01*
G01X6740075Y-2449649D02*
G01X6723057Y-2455491D01*
G01X6711627Y-2472509D01*
G01X6705785Y-2501211D01*
G01X6705785Y-2518229D01*
G01X6711627Y-2546931D01*
G01X6723057Y-2563949D01*
G01X6740075Y-2569791D01*
G01X6751505Y-2569791D01*
G01X6768777Y-2563949D01*
G01X6780207Y-2546931D01*
G01X6785795Y-2518229D01*
G01X6785795Y-2501211D01*
G01X6780207Y-2472509D01*
G01X6768777Y-2455491D01*
G01X6751505Y-2449649D01*
G01X6740075Y-2449649D01*
G01X6833547Y-2489781D02*
G01X6896539Y-2569791D01*
G01X6896539Y-2489781D02*
G01X6833547Y-2569791D01*
G01X6944291Y-2472509D02*
G01X6955721Y-2466921D01*
G01X6972993Y-2449649D01*
G01X6972993Y-2569791D01*
G01X7026587Y-2541089D02*
G01X7020745Y-2546931D01*
G01X7026587Y-2552519D01*
G01X7032175Y-2546931D01*
G01X7026587Y-2541089D01*
G01X7114217Y-2449649D02*
G01X7097199Y-2455491D01*
G01X7085769Y-2472509D01*
G01X7079927Y-2501211D01*
G01X7079927Y-2518229D01*
G01X7085769Y-2546931D01*
G01X7097199Y-2563949D01*
G01X7114217Y-2569791D01*
G01X7125647Y-2569791D01*
G01X7142919Y-2563949D01*
G01X7154349Y-2546931D01*
G01X7159937Y-2518229D01*
G01X7159937Y-2501211D01*
G01X7154349Y-2472509D01*
G01X7142919Y-2455491D01*
G01X7125647Y-2449649D01*
G01X7114217Y-2449649D01*
G01X7241979Y-2449649D02*
G01X7224961Y-2455491D01*
G01X7213531Y-2472509D01*
G01X7207689Y-2501211D01*
G01X7207689Y-2518229D01*
G01X7213531Y-2546931D01*
G01X7224961Y-2563949D01*
G01X7241979Y-2569791D01*
G01X7253409Y-2569791D01*
G01X7270681Y-2563949D01*
G01X7282111Y-2546931D01*
G01X7287699Y-2518229D01*
G01X7287699Y-2501211D01*
G01X7282111Y-2472509D01*
G01X7270681Y-2455491D01*
G01X7253409Y-2449649D01*
G01X7241979Y-2449649D01*
G01X7369741Y-2449649D02*
G01X7352723Y-2455491D01*
G01X7341293Y-2472509D01*
G01X7335451Y-2501211D01*
G01X7335451Y-2518229D01*
G01X7341293Y-2546931D01*
G01X7352723Y-2563949D01*
G01X7369741Y-2569791D01*
G01X7381171Y-2569791D01*
G01X7398443Y-2563949D01*
G01X7409873Y-2546931D01*
G01X7415461Y-2518229D01*
G01X7415461Y-2501211D01*
G01X7409873Y-2472509D01*
G01X7398443Y-2455491D01*
G01X7381171Y-2449649D01*
G01X7369741Y-2449649D01*
G01X7463213Y-2489781D02*
G01X7463213Y-2569791D01*
G01X7463213Y-2512641D02*
G01X7480485Y-2495369D01*
G01X7491915Y-2489781D01*
G01X7508933Y-2489781D01*
G01X7520363Y-2495369D01*
G01X7526205Y-2512641D01*
G01X7526205Y-2569791D01*
G01X7526205Y-2512641D02*
G01X7543223Y-2495369D01*
G01X7554653Y-2489781D01*
G01X7571925Y-2489781D01*
G01X7583355Y-2495369D01*
G01X7588943Y-2512641D01*
G01X7588943Y-2569791D01*
G01X7636695Y-2489781D02*
G01X7636695Y-2569791D01*
G01X7636695Y-2512641D02*
G01X7653967Y-2495369D01*
G01X7665397Y-2489781D01*
G01X7682415Y-2489781D01*
G01X7693845Y-2495369D01*
G01X7699687Y-2512641D01*
G01X7699687Y-2569791D01*
G01X7699687Y-2512641D02*
G01X7716705Y-2495369D01*
G01X7728135Y-2489781D01*
G01X7745407Y-2489781D01*
G01X7756837Y-2495369D01*
G01X7762425Y-2512641D01*
G01X7762425Y-2569791D01*
G01X7810177Y-2426789D02*
G01X7821607Y-2438219D01*
G01X7833037Y-2455491D01*
G01X7844467Y-2478351D01*
G01X7850309Y-2506799D01*
G01X7850309Y-2529659D01*
G01X7844467Y-2558361D01*
G01X7833037Y-2581221D01*
G01X7821607Y-2598239D01*
G01X7810177Y-2609669D01*
G01X8832927Y-2449649D02*
G01X8832927Y-2569791D01*
G01X8832927Y-2449649D02*
G01X8884489Y-2449649D01*
G01X8901507Y-2455491D01*
G01X8907349Y-2461079D01*
G01X8912937Y-2472509D01*
G01X8912937Y-2489781D01*
G01X8907349Y-2501211D01*
G01X8901507Y-2506799D01*
G01X8884489Y-2512641D01*
G01X8832927Y-2512641D01*
G01X9000821Y-2449649D02*
G01X9000821Y-2569791D01*
G01X8960689Y-2449649D02*
G01X9040699Y-2449649D01*
G01X9088451Y-2449649D02*
G01X9088451Y-2569791D01*
G01X9168461Y-2449649D02*
G01X9168461Y-2569791D01*
G01X9088451Y-2506799D02*
G01X9168461Y-2506799D01*
G01X10294334Y-2449649D02*
G01X10294334Y-2569791D01*
G01X10294334Y-2449649D02*
G01X10345896Y-2449649D01*
G01X10362914Y-2455491D01*
G01X10368756Y-2461079D01*
G01X10374344Y-2472509D01*
G01X10374344Y-2483939D01*
G01X10368756Y-2495369D01*
G01X10362914Y-2501211D01*
G01X10345896Y-2506799D01*
G01X10294334Y-2506799D01*
G01X10334466Y-2506799D02*
G01X10374344Y-2569791D01*
G01X10450798Y-2489781D02*
G01X10439368Y-2495369D01*
G01X10427938Y-2506799D01*
G01X10422096Y-2524071D01*
G01X10422096Y-2535501D01*
G01X10427938Y-2552519D01*
G01X10439368Y-2563949D01*
G01X10450798Y-2569791D01*
G01X10467816Y-2569791D01*
G01X10479246Y-2563949D01*
G01X10490676Y-2552519D01*
G01X10496518Y-2535501D01*
G01X10496518Y-2524071D01*
G01X10490676Y-2506799D01*
G01X10479246Y-2495369D01*
G01X10467816Y-2489781D01*
G01X10450798Y-2489781D01*
G01X10544270Y-2489781D02*
G01X10544270Y-2546931D01*
G01X10550112Y-2563949D01*
G01X10561542Y-2569791D01*
G01X10578560Y-2569791D01*
G01X10589990Y-2563949D01*
G01X10607262Y-2546931D01*
G01X10607262Y-2489781D02*
G01X10607262Y-2569791D01*
G01X10655014Y-2489781D02*
G01X10655014Y-2569791D01*
G01X10655014Y-2512641D02*
G01X10672286Y-2495369D01*
G01X10683716Y-2489781D01*
G01X10700734Y-2489781D01*
G01X10712164Y-2495369D01*
G01X10718006Y-2512641D01*
G01X10718006Y-2569791D01*
G01X10834338Y-2449649D02*
G01X10834338Y-2569791D01*
G01X10834338Y-2506799D02*
G01X10822908Y-2495369D01*
G01X10811478Y-2489781D01*
G01X10794460Y-2489781D01*
G01X10783030Y-2495369D01*
G01X10771600Y-2506799D01*
G01X10765758Y-2524071D01*
G01X10765758Y-2535501D01*
G01X10771600Y-2552519D01*
G01X10783030Y-2563949D01*
G01X10794460Y-2569791D01*
G01X10811478Y-2569791D01*
G01X10822908Y-2563949D01*
G01X10834338Y-2552519D01*
G01X11725515Y-2449649D02*
G01X11725515Y-2569791D01*
G01X11725515Y-2449649D02*
G01X11777077Y-2449649D01*
G01X11794095Y-2455491D01*
G01X11799937Y-2461079D01*
G01X11805525Y-2472509D01*
G01X11805525Y-2489781D01*
G01X11799937Y-2501211D01*
G01X11794095Y-2506799D01*
G01X11777077Y-2512641D01*
G01X11725515Y-2512641D01*
G01X11921857Y-2489781D02*
G01X11921857Y-2569791D01*
G01X11921857Y-2506799D02*
G01X11910427Y-2495369D01*
G01X11898997Y-2489781D01*
G01X11881979Y-2489781D01*
G01X11870549Y-2495369D01*
G01X11859119Y-2506799D01*
G01X11853277Y-2524071D01*
G01X11853277Y-2535501D01*
G01X11859119Y-2552519D01*
G01X11870549Y-2563949D01*
G01X11881979Y-2569791D01*
G01X11898997Y-2569791D01*
G01X11910427Y-2563949D01*
G01X11921857Y-2552519D01*
G01X12038189Y-2449649D02*
G01X12038189Y-2569791D01*
G01X12038189Y-2506799D02*
G01X12026759Y-2495369D01*
G01X12015329Y-2489781D01*
G01X11998311Y-2489781D01*
G01X11986881Y-2495369D01*
G01X11975451Y-2506799D01*
G01X11969609Y-2524071D01*
G01X11969609Y-2535501D01*
G01X11975451Y-2552519D01*
G01X11986881Y-2563949D01*
G01X11998311Y-2569791D01*
G01X12015329Y-2569791D01*
G01X12026759Y-2563949D01*
G01X12038189Y-2552519D01*
G01X13434826Y-2426789D02*
G01X13423396Y-2438219D01*
G01X13411966Y-2455491D01*
G01X13400536Y-2478351D01*
G01X13394694Y-2506799D01*
G01X13394694Y-2529659D01*
G01X13400536Y-2558361D01*
G01X13411966Y-2581221D01*
G01X13423396Y-2598239D01*
G01X13434826Y-2609669D01*
G01X13482578Y-2449649D02*
G01X13482578Y-2569791D01*
G01X13482578Y-2449649D02*
G01X13528298Y-2569791D01*
G01X13574018Y-2449649D02*
G01X13528298Y-2569791D01*
G01X13574018Y-2449649D02*
G01X13574018Y-2569791D01*
G01X13621770Y-2449649D02*
G01X13627612Y-2455491D01*
G01X13633200Y-2449649D01*
G01X13627612Y-2444061D01*
G01X13621770Y-2449649D01*
G01X13627612Y-2489781D02*
G01X13627612Y-2569791D01*
G01X13680952Y-2489781D02*
G01X13743944Y-2569791D01*
G01X13743944Y-2489781D02*
G01X13680952Y-2569791D01*
G01X13791696Y-2524071D02*
G01X13860276Y-2524071D01*
G01X13860276Y-2512641D01*
G01X13854688Y-2501211D01*
G01X13848846Y-2495369D01*
G01X13837416Y-2489781D01*
G01X13820398Y-2489781D01*
G01X13808968Y-2495369D01*
G01X13797538Y-2506799D01*
G01X13791696Y-2524071D01*
G01X13791696Y-2535501D01*
G01X13797538Y-2552519D01*
G01X13808968Y-2563949D01*
G01X13820398Y-2569791D01*
G01X13837416Y-2569791D01*
G01X13848846Y-2563949D01*
G01X13860276Y-2552519D01*
G01X13976608Y-2449649D02*
G01X13976608Y-2569791D01*
G01X13976608Y-2506799D02*
G01X13965178Y-2495369D01*
G01X13953748Y-2489781D01*
G01X13936730Y-2489781D01*
G01X13925300Y-2495369D01*
G01X13913870Y-2506799D01*
G01X13908028Y-2524071D01*
G01X13908028Y-2535501D01*
G01X13913870Y-2552519D01*
G01X13925300Y-2563949D01*
G01X13936730Y-2569791D01*
G01X13953748Y-2569791D01*
G01X13965178Y-2563949D01*
G01X13976608Y-2552519D01*
G01X14024360Y-2426789D02*
G01X14035790Y-2438219D01*
G01X14047220Y-2455491D01*
G01X14058650Y-2478351D01*
G01X14064492Y-2506799D01*
G01X14064492Y-2529659D01*
G01X14058650Y-2558361D01*
G01X14047220Y-2581221D01*
G01X14035790Y-2598239D01*
G01X14024360Y-2609669D01*
G01X15354195Y-2449649D02*
G01X15354195Y-2569791D01*
G01X15314063Y-2449649D02*
G01X15394073Y-2449649D01*
G01X15470527Y-2489781D02*
G01X15459097Y-2495369D01*
G01X15447667Y-2506799D01*
G01X15441825Y-2524071D01*
G01X15441825Y-2535501D01*
G01X15447667Y-2552519D01*
G01X15459097Y-2563949D01*
G01X15470527Y-2569791D01*
G01X15487545Y-2569791D01*
G01X15498975Y-2563949D01*
G01X15510405Y-2552519D01*
G01X15516247Y-2535501D01*
G01X15516247Y-2524071D01*
G01X15510405Y-2506799D01*
G01X15498975Y-2495369D01*
G01X15487545Y-2489781D01*
G01X15470527Y-2489781D01*
G01X15563999Y-2489781D02*
G01X15563999Y-2609669D01*
G01X15563999Y-2506799D02*
G01X15575429Y-2495369D01*
G01X15586859Y-2489781D01*
G01X15604131Y-2489781D01*
G01X15615561Y-2495369D01*
G01X15626991Y-2506799D01*
G01X15632579Y-2524071D01*
G01X15632579Y-2535501D01*
G01X15626991Y-2552519D01*
G01X15615561Y-2563949D01*
G01X15604131Y-2569791D01*
G01X15586859Y-2569791D01*
G01X15575429Y-2563949D01*
G01X15563999Y-2552519D01*
G01X15808347Y-2449649D02*
G01X15808347Y-2569791D01*
G01X15808347Y-2569791D02*
G01X15876927Y-2569791D01*
G01X15993259Y-2489781D02*
G01X15993259Y-2569791D01*
G01X15993259Y-2506799D02*
G01X15981829Y-2495369D01*
G01X15970399Y-2489781D01*
G01X15953381Y-2489781D01*
G01X15941951Y-2495369D01*
G01X15930521Y-2506799D01*
G01X15924679Y-2524071D01*
G01X15924679Y-2535501D01*
G01X15930521Y-2552519D01*
G01X15941951Y-2563949D01*
G01X15953381Y-2569791D01*
G01X15970399Y-2569791D01*
G01X15981829Y-2563949D01*
G01X15993259Y-2552519D01*
G01X16046853Y-2489781D02*
G01X16081143Y-2569791D01*
G01X16115433Y-2489781D02*
G01X16081143Y-2569791D01*
G01X16069713Y-2592651D01*
G01X16058283Y-2604081D01*
G01X16046853Y-2609669D01*
G01X16041011Y-2609669D01*
G01X16163185Y-2524071D02*
G01X16231765Y-2524071D01*
G01X16231765Y-2512641D01*
G01X16226177Y-2501211D01*
G01X16220335Y-2495369D01*
G01X16208905Y-2489781D01*
G01X16191887Y-2489781D01*
G01X16180457Y-2495369D01*
G01X16169027Y-2506799D01*
G01X16163185Y-2524071D01*
G01X16163185Y-2535501D01*
G01X16169027Y-2552519D01*
G01X16180457Y-2563949D01*
G01X16191887Y-2569791D01*
G01X16208905Y-2569791D01*
G01X16220335Y-2563949D01*
G01X16231765Y-2552519D01*
G01X16279517Y-2489781D02*
G01X16279517Y-2569791D01*
G01X16279517Y-2524071D02*
G01X16285359Y-2506799D01*
G01X16296789Y-2495369D01*
G01X16308219Y-2489781D01*
G01X16325237Y-2489781D01*
G01X16372989Y-2518229D02*
G01X16475859Y-2518229D01*
G01X16523611Y-2449649D02*
G01X16523611Y-2569791D01*
G01X16523611Y-2449649D02*
G01X16575173Y-2449649D01*
G01X16592191Y-2455491D01*
G01X16598033Y-2461079D01*
G01X16603621Y-2472509D01*
G01X16603621Y-2483939D01*
G01X16598033Y-2495369D01*
G01X16592191Y-2501211D01*
G01X16575173Y-2506799D01*
G01X16523611Y-2506799D02*
G01X16575173Y-2506799D01*
G01X16592191Y-2512641D01*
G01X16598033Y-2518229D01*
G01X16603621Y-2529659D01*
G01X16603621Y-2546931D01*
G01X16598033Y-2558361D01*
G01X16592191Y-2563949D01*
G01X16575173Y-2569791D01*
G01X16523611Y-2569791D01*
G01X16680075Y-2489781D02*
G01X16668645Y-2495369D01*
G01X16657215Y-2506799D01*
G01X16651373Y-2524071D01*
G01X16651373Y-2535501D01*
G01X16657215Y-2552519D01*
G01X16668645Y-2563949D01*
G01X16680075Y-2569791D01*
G01X16697093Y-2569791D01*
G01X16708523Y-2563949D01*
G01X16719953Y-2552519D01*
G01X16725795Y-2535501D01*
G01X16725795Y-2524071D01*
G01X16719953Y-2506799D01*
G01X16708523Y-2495369D01*
G01X16697093Y-2489781D01*
G01X16680075Y-2489781D01*
G01X16790819Y-2449649D02*
G01X16790819Y-2546931D01*
G01X16796407Y-2563949D01*
G01X16807837Y-2569791D01*
G01X16819267Y-2569791D01*
G01X16773547Y-2489781D02*
G01X16813679Y-2489781D01*
G01X16884291Y-2449649D02*
G01X16884291Y-2546931D01*
G01X16889879Y-2563949D01*
G01X16901309Y-2569791D01*
G01X16912739Y-2569791D01*
G01X16867019Y-2489781D02*
G01X16907151Y-2489781D01*
G01X16989193Y-2489781D02*
G01X16977763Y-2495369D01*
G01X16966333Y-2506799D01*
G01X16960491Y-2524071D01*
G01X16960491Y-2535501D01*
G01X16966333Y-2552519D01*
G01X16977763Y-2563949D01*
G01X16989193Y-2569791D01*
G01X17006211Y-2569791D01*
G01X17017641Y-2563949D01*
G01X17029071Y-2552519D01*
G01X17034913Y-2535501D01*
G01X17034913Y-2524071D01*
G01X17029071Y-2506799D01*
G01X17017641Y-2495369D01*
G01X17006211Y-2489781D01*
G01X16989193Y-2489781D01*
G01X17082665Y-2489781D02*
G01X17082665Y-2569791D01*
G01X17082665Y-2512641D02*
G01X17099937Y-2495369D01*
G01X17111367Y-2489781D01*
G01X17128385Y-2489781D01*
G01X17139815Y-2495369D01*
G01X17145657Y-2512641D01*
G01X17145657Y-2569791D01*
G01X17145657Y-2512641D02*
G01X17162675Y-2495369D01*
G01X17174105Y-2489781D01*
G01X17191377Y-2489781D01*
G01X17202807Y-2495369D01*
G01X17208395Y-2512641D01*
G01X17208395Y-2569791D01*
G01X17384163Y-2449649D02*
G01X17384163Y-2569791D01*
G01X17384163Y-2569791D02*
G01X17452743Y-2569791D01*
G01X17569075Y-2489781D02*
G01X17569075Y-2569791D01*
G01X17569075Y-2506799D02*
G01X17557645Y-2495369D01*
G01X17546215Y-2489781D01*
G01X17529197Y-2489781D01*
G01X17517767Y-2495369D01*
G01X17506337Y-2506799D01*
G01X17500495Y-2524071D01*
G01X17500495Y-2535501D01*
G01X17506337Y-2552519D01*
G01X17517767Y-2563949D01*
G01X17529197Y-2569791D01*
G01X17546215Y-2569791D01*
G01X17557645Y-2563949D01*
G01X17569075Y-2552519D01*
G01X17622669Y-2489781D02*
G01X17656959Y-2569791D01*
G01X17691249Y-2489781D02*
G01X17656959Y-2569791D01*
G01X17645529Y-2592651D01*
G01X17634099Y-2604081D01*
G01X17622669Y-2609669D01*
G01X17616827Y-2609669D01*
G01X17739001Y-2524071D02*
G01X17807581Y-2524071D01*
G01X17807581Y-2512641D01*
G01X17801993Y-2501211D01*
G01X17796151Y-2495369D01*
G01X17784721Y-2489781D01*
G01X17767703Y-2489781D01*
G01X17756273Y-2495369D01*
G01X17744843Y-2506799D01*
G01X17739001Y-2524071D01*
G01X17739001Y-2535501D01*
G01X17744843Y-2552519D01*
G01X17756273Y-2563949D01*
G01X17767703Y-2569791D01*
G01X17784721Y-2569791D01*
G01X17796151Y-2563949D01*
G01X17807581Y-2552519D01*
G01X17855333Y-2489781D02*
G01X17855333Y-2569791D01*
G01X17855333Y-2524071D02*
G01X17861175Y-2506799D01*
G01X17872605Y-2495369D01*
G01X17884035Y-2489781D01*
G01X17901053Y-2489781D01*

G04 Image Start*
G36*
G01X2242369Y-2677099D02*
G01X2234629Y-2677687D01*
G01X2226786Y-2677886D01*
G01X2218943Y-2677687D01*
G01X2211202Y-2677099D01*
G01X2203575Y-2676130D01*
G01X2196070Y-2674790D01*
G01X2181464Y-2671035D01*
G01X2167462Y-2665910D01*
G01X2154140Y-2659493D01*
G01X2141574Y-2651860D01*
G01X2129842Y-2643087D01*
G01X2119020Y-2633252D01*
G01X2109184Y-2622429D01*
G01X2100411Y-2610697D01*
G01X2092778Y-2598132D01*
G01X2086361Y-2584810D01*
G01X2081237Y-2570808D01*
G01X2077482Y-2556202D01*
G01X2076142Y-2548696D01*
G01X2075172Y-2541069D01*
G01X2074584Y-2533329D01*
G01X2074386Y-2525486D01*
G01X2099786Y-2525486D01*
G01X2100443Y-2538452D01*
G01X2102370Y-2551048D01*
G01X2105505Y-2563210D01*
G01X2109782Y-2574872D01*
G01X2115137Y-2585972D01*
G01X2121505Y-2596443D01*
G01X2128823Y-2606223D01*
G01X2137025Y-2615246D01*
G01X2146049Y-2623449D01*
G01X2155828Y-2630766D01*
G01X2166300Y-2637135D01*
G01X2177399Y-2642490D01*
G01X2189062Y-2646766D01*
G01X2201223Y-2649901D01*
G01X2201223Y-2649901D01*
G01X2213819Y-2651829D01*
G01X2226786Y-2652486D01*
G01X2239752Y-2651829D01*
G01X2252348Y-2649901D01*
G01X2264510Y-2646766D01*
G01X2276172Y-2642490D01*
G01X2287272Y-2637135D01*
G01X2297743Y-2630766D01*
G01X2307523Y-2623449D01*
G01X2316546Y-2615246D01*
G01X2324749Y-2606223D01*
G01X2332066Y-2596443D01*
G01X2338435Y-2585972D01*
G01X2343790Y-2574872D01*
G01X2348066Y-2563210D01*
G01X2351201Y-2551048D01*
G01X2353129Y-2538452D01*
G01X2353786Y-2525486D01*
G01X2353129Y-2512519D01*
G01X2351201Y-2499923D01*
G01X2348066Y-2487762D01*
G01X2343790Y-2476099D01*
G01X2338435Y-2465000D01*
G01X2332066Y-2454528D01*
G01X2324749Y-2444749D01*
G01X2316546Y-2435725D01*
G01X2307523Y-2427523D01*
G01X2297743Y-2420205D01*
G01X2287272Y-2413837D01*
G01X2276172Y-2408482D01*
G01X2264510Y-2404205D01*
G01X2252348Y-2401071D01*
G01X2239752Y-2399143D01*
G01X2226786Y-2398486D01*
G01X2213819Y-2399143D01*
G01X2201223Y-2401071D01*
G01X2189062Y-2404205D01*
G01X2177399Y-2408482D01*
G01X2166300Y-2413837D01*
G01X2155828Y-2420205D01*
G01X2146049Y-2427523D01*
G01X2137025Y-2435725D01*
G01X2128823Y-2444749D01*
G01X2121505Y-2454528D01*
G01X2115137Y-2465000D01*
G01X2109782Y-2476099D01*
G01X2105505Y-2487762D01*
G01X2102370Y-2499923D01*
G01X2100443Y-2512519D01*
G01X2099786Y-2525486D01*
G01X2074386Y-2525486D01*
G01X2074584Y-2517643D01*
G01X2075172Y-2509902D01*
G01X2076142Y-2502275D01*
G01X2077482Y-2494770D01*
G01X2081237Y-2480164D01*
G01X2086361Y-2466162D01*
G01X2092778Y-2452840D01*
G01X2100411Y-2440274D01*
G01X2109184Y-2428542D01*
G01X2119020Y-2417720D01*
G01X2129842Y-2407884D01*
G01X2141574Y-2399111D01*
G01X2154140Y-2391478D01*
G01X2167462Y-2385061D01*
G01X2181464Y-2379937D01*
G01X2196070Y-2376182D01*
G01X2203575Y-2374842D01*
G01X2211202Y-2373872D01*
G01X2218943Y-2373284D01*
G01X2226786Y-2373086D01*
G01X2234629Y-2373284D01*
G01X2242369Y-2373872D01*
G01X2249996Y-2374842D01*
G01X2257502Y-2376182D01*
G01X2272108Y-2379937D01*
G01X2286110Y-2385061D01*
G01X2299432Y-2391478D01*
G01X2311997Y-2399111D01*
G01X2323729Y-2407884D01*
G01X2334552Y-2417720D01*
G01X2344387Y-2428542D01*
G01X2353160Y-2440274D01*
G01X2360793Y-2452840D01*
G01X2367210Y-2466162D01*
G01X2372335Y-2480164D01*
G01X2376090Y-2494770D01*
G01X2377430Y-2502275D01*
G01X2378399Y-2509902D01*
G01X2378987Y-2517643D01*
G01X2379186Y-2525486D01*
G01X2378987Y-2533329D01*
G01X2378399Y-2541069D01*
G01X2377430Y-2548696D01*
G01X2376090Y-2556202D01*
G01X2372335Y-2570808D01*
G01X2367210Y-2584810D01*
G01X2360793Y-2598132D01*
G01X2353160Y-2610697D01*
G01X2344387Y-2622429D01*
G01X2334552Y-2633252D01*
G01X2323729Y-2643087D01*
G01X2311997Y-2651860D01*
G01X2299432Y-2659493D01*
G01X2286110Y-2665910D01*
G01X2272108Y-2671035D01*
G01X2257502Y-2674790D01*
G01X2249996Y-2676130D01*
G01X2242369Y-2677099D01*
G37*
G36*
G01X2074386Y-1792514D02*
G01X2353786Y-1792514D01*
G01X2353786Y-2071914D01*
G01X2074386Y-2071914D01*
G01X2074386Y-1817914D01*
G01X2099786Y-1817914D01*
G01X2099786Y-2046514D01*
G01X2328386Y-2046514D01*
G01X2328386Y-1817914D01*
G01X2328386Y-1817914D01*
G01X2099786Y-1817914D01*
G01X2074386Y-1817914D01*
G01X2074386Y-1792514D01*
G37*

G04 PolygonModel Start*
G54D13*
G01X1784100Y-2808514D02*
G01X18491785Y-2808514D01*
G01X1784100Y-2227943D02*
G01X18491785Y-2227943D01*
G01X1784100Y-1647371D02*
G01X18491785Y-1647371D01*
G01X1784100Y-1066800D02*
G01X18491785Y-1066800D01*
G01X1784100Y-1066800D02*
G01X1784100Y-2783114D01*
G01X3235529Y-1066800D02*
G01X3235529Y-2783114D01*
G01X4649692Y-1066800D02*
G01X4649692Y-2783114D01*
G01X8532481Y-1066800D02*
G01X8532481Y-2783114D01*
G01X9993888Y-1066800D02*
G01X9993888Y-2783114D01*
G01X11425069Y-1066800D02*
G01X11425069Y-2783114D01*
G01X13094248Y-1066800D02*
G01X13094248Y-2783114D01*
G01X15013617Y-1066800D02*
G01X15013617Y-2783114D01*
G01X18491785Y-1066800D02*
G01X18491785Y-2783114D01*

M02*

