G04 Layer: TopSilkscreenLayer*
G04 EasyEDA Pro v3.2.148, 2026-08-12 10:44:37*
G04 Gerber Generator version 0.3*
G04 Scale: 100 percent, Rotated: No, Reflected: No*
G04 Dimensions in millimeters*
G04 Leading zeros omitted, absolute positions, 4 integers and 5 decimals*
G04 Generated by one-click*
G04 Object Configs: Pad,Via,Track,Text,Image,Dimension,BoardOutline,BoardCutout,CopperFilled,SolidRegion,FPCStiffener,Line,PlaneZone,ComponentProperty,ComponentSilkscreen,TearDrop*
G04 Layer Configs: 1,2,3,4,5,6,7,8,9,10,11,13,14,56*
G04 Copper Areas: 0*
%FSLAX45Y45*%
%MOMM*%
%ADD10C,0.1524*%
%ADD11C,0.254*%
%ADD12C,0.7369*%
G75*


G04 Text Start*
G54D10*
G01X-5213792Y-1495268D02*
G01X-5213792Y-1544798D01*
G01X-5216840Y-1553942D01*
G01X-5219888Y-1557244D01*
G01X-5226238Y-1560292D01*
G01X-5232334Y-1560292D01*
G01X-5238684Y-1557244D01*
G01X-5241732Y-1553942D01*
G01X-5244780Y-1544798D01*
G01X-5244780Y-1538448D01*
G01X-5183566Y-1507714D02*
G01X-5177470Y-1504412D01*
G01X-5168326Y-1495268D01*
G01X-5168326Y-1560292D01*
G01X-3078480Y-1417066D02*
G01X-3078480Y-1482090D01*
G01X-3078480Y-1417066D02*
G01X-3050540Y-1417066D01*
G01X-3041396Y-1420114D01*
G01X-3038348Y-1423162D01*
G01X-3035046Y-1429512D01*
G01X-3035046Y-1435608D01*
G01X-3038348Y-1441704D01*
G01X-3041396Y-1444752D01*
G01X-3050540Y-1448054D01*
G01X-3078480Y-1448054D01*
G01X-3056890Y-1448054D02*
G01X-3035046Y-1482090D01*
G01X-3004820Y-1429512D02*
G01X-2998724Y-1426210D01*
G01X-2989580Y-1417066D01*
G01X-2989580Y-1482090D01*
G01X-1058833Y-1290066D02*
G01X-1058833Y-1355090D01*
G01X-1058833Y-1355090D02*
G01X-1021749Y-1355090D01*
G01X-991523Y-1290066D02*
G01X-991523Y-1355090D01*
G01X-991523Y-1290066D02*
G01X-951391Y-1290066D01*
G01X-991523Y-1321054D02*
G01X-966885Y-1321054D01*
G01X-991523Y-1355090D02*
G01X-951391Y-1355090D01*
G01X-921165Y-1290066D02*
G01X-921165Y-1355090D01*
G01X-921165Y-1290066D02*
G01X-899575Y-1290066D01*
G01X-890431Y-1293114D01*
G01X-884081Y-1299210D01*
G01X-881033Y-1305560D01*
G01X-877985Y-1314704D01*
G01X-877985Y-1330198D01*
G01X-881033Y-1339596D01*
G01X-884081Y-1345692D01*
G01X-890431Y-1352042D01*
G01X-899575Y-1355090D01*
G01X-921165Y-1355090D01*
G01X-847759Y-1302512D02*
G01X-841663Y-1299210D01*
G01X-832519Y-1290066D01*
G01X-832519Y-1355090D01*
G04 Text End*

G04 PolygonModel Start*
G54D11*
G01X-462200Y-1917700D02*
G01X-462200Y-1536700D01*
G01X-843200Y-1574800D02*
G01X-792400Y-1574800D01*
G01X-817800Y-1549400D02*
G01X-817800Y-1600200D01*
G01X-462200Y-1917700D02*
G02X-462200Y-1536700I-254000J190500D01*
G01X-4691700Y-1614902D02*
G01X-4691700Y-1864901D01*
G01X-5239700Y-1614902D02*
G01X-4691700Y-1614902D01*
G01X-5239700Y-1864901D02*
G01X-5239700Y-1614902D01*
G01X-4691700Y-1864901D02*
G01X-5239700Y-1864901D01*
G01X-3323003Y-1857423D02*
G01X-3323003Y-1618663D01*
G01X-3323003Y-1618663D02*
G01X-2693083Y-1618663D01*
G01X-2693083Y-1618663D02*
G01X-2693083Y-1857423D01*
G01X-2693083Y-1857423D02*
G01X-3323003Y-1857423D01*

G04 Circle Start*
G01X-970200Y-1727200D02*
G03X-462200Y-1727200I254000J0D01*
G03X-970200Y-1727200I-254000J0D01*
G04 Circle End*

M02*

